<?xml version="1.0" standalone="no"?>
<!DOCTYPE svg PUBLIC "-//W3C//DTD SVG 20010904//EN"
 "http://www.w3.org/TR/2001/REC-SVG-20010904/DTD/svg10.dtd">
<svg version="1.0" xmlns="http://www.w3.org/2000/svg"
 width="700.000000pt" height="700.000000pt" viewBox="0 0 700.000000 700.000000"
 preserveAspectRatio="xMidYMid meet">
<metadata>
Created by potrace 1.14, written by Peter Selinger 2001-2017
</metadata>
<g transform="translate(0.000000,700.000000) scale(0.100000,-0.100000)"
fill="#000000" stroke="none">
<path d="M3318 6494 c-222 -42 -398 -135 -558 -294 -203 -201 -308 -455 -308
-740 1 -267 95 -510 273 -707 31 -35 51 -63 43 -64 -60 -3 -147 -43 -205 -93
-25 -22 -56 -64 -75 -104 -29 -59 -33 -76 -33 -152 0 -72 4 -94 27 -143 54
-115 179 -202 296 -206 l22 -1 -5 -306 c-3 -168 -7 -340 -10 -382 -2 -42 -7
-138 -10 -212 -4 -74 -8 -151 -10 -170 -2 -19 -7 -75 -10 -125 -12 -144 -12
-147 -19 -200 -3 -27 -8 -66 -10 -85 -12 -100 -19 -144 -37 -240 -25 -139 -25
-135 -43 -208 -23 -88 -63 -196 -98 -267 -46 -90 -110 -185 -128 -186 -14 0
-38 -5 -65 -12 -5 -2 -30 -12 -55 -24 -71 -32 -126 -87 -162 -160 -28 -57 -32
-76 -32 -147 l-1 -81 -50 -13 c-132 -34 -254 -157 -289 -290 -58 -219 66 -446
282 -512 63 -20 95 -20 1446 -20 1533 0 1443 -4 1559 67 116 71 187 195 193
339 8 197 -112 361 -307 418 l-42 12 -1 80 c-3 121 -55 218 -150 282 -41 28
-132 62 -166 62 -22 0 -92 107 -144 220 -90 195 -154 517 -191 965 -3 39 -7
93 -10 120 -2 28 -6 104 -10 170 -3 66 -8 158 -10 205 -3 47 -7 223 -11 391
l-5 306 48 7 c164 22 292 163 299 330 7 172 -96 312 -260 353 l-65 16 55 61
c105 116 184 257 229 406 34 113 40 160 39 320 -1 123 -5 160 -27 241 -50 183
-138 339 -267 470 -159 163 -351 264 -573 304 -90 16 -271 15 -359 -1z m387
-293 c145 -40 285 -131 387 -250 58 -68 132 -212 155 -301 17 -68 24 -253 11
-325 -64 -363 -387 -633 -755 -633 -50 0 -111 4 -135 10 -24 5 -53 12 -66 14
-41 8 -126 43 -184 77 -171 97 -306 271 -360 462 -29 103 -31 295 -5 395 39
148 149 318 267 412 91 72 236 139 333 153 23 4 44 9 46 11 13 13 234 -5 306
-25z m549 -1816 c21 -28 20 -58 -5 -89 l-20 -26 -727 0 -726 0 -23 22 c-29 27
-29 57 -2 92 l21 26 733 -2 c721 -3 734 -3 749 -23z m-333 -472 c1 -266 12
-639 24 -832 17 -270 22 -348 30 -416 2 -22 7 -67 10 -100 40 -381 118 -704
220 -906 l25 -49 -730 0 c-402 0 -729 3 -727 8 87 152 181 470 212 721 4 30 8
63 11 74 2 10 6 45 9 76 4 31 8 67 10 81 9 60 27 285 39 495 12 190 23 581 25
848 l1 77 420 0 420 0 1 -77z m673 -2604 c14 -11 26 -29 26 -39 0 -32 -21 -68
-44 -74 -11 -3 -500 -6 -1085 -6 l-1065 0 -23 22 c-29 27 -29 65 -1 95 l21 23
1072 0 c1070 0 1072 0 1099 -21z m304 -419 c40 -25 72 -75 72 -115 0 -43 -30
-96 -69 -122 l-34 -23 -1361 0 c-1521 0 -1403 -6 -1454 70 -45 67 -15 161 63
196 25 11 279 13 1390 14 1340 0 1360 0 1393 -20z"/>
</g>
</svg>
